<svg width="59" height="59" fill="none" xmlns="http://www.w3.org/2000/svg"><g filter="url(#filter0_d_1_554)"><rect x="1" width="55" height="55" rx="20" fill="url(#paint0_linear_1_554)"/></g><g clip-path="url(#clip0_1_554)"><path fill-rule="evenodd" clip-rule="evenodd" d="M43.451 38.388c-.199.198-.439.452-.694.721-.635.675-1.43 1.513-1.927 1.853-2.619 1.79-6.122.933-8.6-.1-3.269-1.361-6.828-3.872-10.023-7.068-3.199-3.196-5.709-6.756-7.071-10.023-1.031-2.478-1.89-5.982-.1-8.601.34-.498 1.18-1.291 1.854-1.928.27-.254.522-.494.721-.693a1.888 1.888 0 012.663 0l4.818 4.817a1.888 1.888 0 010 2.662l-1.313 1.31a2.868 2.868 0 00-.506 3.39 19.249 19.249 0 008 7.998 2.865 2.865 0 003.388-.507l1.31-1.31a1.888 1.888 0 012.662 0l4.818 4.818a1.886 1.886 0 010 2.66z" fill="#fff"/></g><defs><linearGradient id="paint0_linear_1_554" x1="-1.5" y1="24.5" x2="138.5" y2="27" gradientUnits="userSpaceOnUse"><stop stop-color="#16BF13"/><stop offset=".23" stop-color="#17FF75"/><stop offset=".889" stop-color="#16C014"/></linearGradient><clipPath id="clip0_1_554"><path fill="#fff" transform="translate(14 12)" d="M0 0h30v30H0z"/></clipPath><filter id="filter0_d_1_554" x="0" y="0" width="59" height="59" filterUnits="userSpaceOnUse" color-interpolation-filters="sRGB"><feFlood flood-opacity="0" result="BackgroundImageFix"/><feColorMatrix in="SourceAlpha" values="0 0 0 0 0 0 0 0 0 0 0 0 0 0 0 0 0 0 127 0" result="hardAlpha"/><feOffset dx="1" dy="2"/><feGaussianBlur stdDeviation="1"/><feComposite in2="hardAlpha" operator="out"/><feColorMatrix values="0 0 0 0 0.0619429 0 0 0 0 0.546174 0 0 0 0 0.258036 0 0 0 0.4 0"/><feBlend in2="BackgroundImageFix" result="effect1_dropShadow_1_554"/><feBlend in="SourceGraphic" in2="effect1_dropShadow_1_554" result="shape"/></filter></defs></svg>