<svg width="75" height="75" viewBox="0 0 75 75" fill="none" xmlns="http://www.w3.org/2000/svg">
<g clip-path="url(#clip0_1_172)">
<path d="M73.75 43.75C74.0815 43.75 74.3995 43.6183 74.6339 43.3839C74.8683 43.1495 75 42.8315 75 42.5V32.5C75 32.1685 74.8683 31.8505 74.6339 31.6161C74.3995 31.3817 74.0815 31.25 73.75 31.25H66.8337C66.074 27.6651 64.6599 24.251 62.6625 21.1788L67.5475 16.2825C67.7815 16.0481 67.9129 15.7305 67.9129 15.3994C67.9129 15.0682 67.7815 14.7506 67.5475 14.5162L60.485 7.45375C60.2506 7.21979 59.933 7.08839 59.6019 7.08839C59.2707 7.08839 58.9531 7.21979 58.7188 7.45375L53.8213 12.3375C50.749 10.3401 47.3349 8.92604 43.75 8.16625V1.25C43.75 0.918479 43.6183 0.600537 43.3839 0.366116C43.1495 0.131696 42.8315 0 42.5 0H32.5C32.1685 0 31.8505 0.131696 31.6161 0.366116C31.3817 0.600537 31.25 0.918479 31.25 1.25V8.16625C27.6651 8.92604 24.251 10.3401 21.1788 12.3375L16.2825 7.4525C16.0481 7.21854 15.7305 7.08714 15.3994 7.08714C15.0682 7.08714 14.7506 7.21854 14.5162 7.4525L7.45375 14.515C7.21979 14.7494 7.08839 15.067 7.08839 15.3981C7.08839 15.7293 7.21979 16.0469 7.45375 16.2812L12.3388 21.1775C10.3407 24.2501 8.92628 27.6646 8.16625 31.25H1.25C0.918479 31.25 0.600537 31.3817 0.366116 31.6161C0.131696 31.8505 0 32.1685 0 32.5V42.5C0 42.8315 0.131696 43.1495 0.366116 43.3839C0.600537 43.6183 0.918479 43.75 1.25 43.75H8.16625C8.92604 47.3349 10.3401 50.749 12.3375 53.8213L7.4525 58.7175C7.21854 58.9519 7.08714 59.2695 7.08714 59.6006C7.08714 59.9318 7.21854 60.2494 7.4525 60.4837L14.515 67.5462C14.7494 67.7802 15.067 67.9116 15.3981 67.9116C15.7293 67.9116 16.0469 67.7802 16.2812 67.5462L21.1775 62.6613C24.2501 64.6593 27.6646 66.0737 31.25 66.8337V73.75C31.25 74.0815 31.3817 74.3995 31.6161 74.6339C31.8505 74.8683 32.1685 75 32.5 75H42.5C42.8315 75 43.1495 74.8683 43.3839 74.6339C43.6183 74.3995 43.75 74.0815 43.75 73.75V66.8337C47.3338 66.0709 50.7465 64.6548 53.8175 62.6562L64.0163 72.855C65.1901 74.0186 66.7771 74.6699 68.43 74.6663C70.0828 74.6626 71.6669 74.0044 72.8357 72.8357C74.0044 71.6669 74.6626 70.0828 74.6663 68.43C74.6699 66.7771 74.0186 65.1901 72.855 64.0163L62.6562 53.8175C64.6548 50.7465 66.0709 47.3338 66.8337 43.75H73.75ZM71.0875 71.0875C70.7393 71.4358 70.3258 71.7121 69.8708 71.9006C69.4158 72.0891 68.9281 72.1861 68.4356 72.1861C67.9431 72.1861 67.4554 72.0891 67.0004 71.9006C66.5454 71.7121 66.132 71.4358 65.7838 71.0875L41.8488 47.1537C41.2674 46.5732 40.5769 46.1134 39.817 45.8011C39.0571 45.4887 38.2428 45.3299 37.4212 45.3337C37.1606 45.3337 36.9001 45.3491 36.6413 45.38C35.0195 45.5748 33.3748 45.369 31.851 44.7807C30.3273 44.1923 28.971 43.2394 27.901 42.0053C26.8309 40.7712 26.0798 39.2936 25.7133 37.7018C25.3468 36.1101 25.3761 34.4528 25.7987 32.875L31.3125 38.39C31.5469 38.6244 31.8648 38.7562 32.1963 38.7563H37.5C37.8315 38.7563 38.1495 38.6246 38.3839 38.3901C38.6183 38.1557 38.75 37.8378 38.75 37.5063V32.1963C38.7499 31.8648 38.6182 31.5469 38.3838 31.3125L32.875 25.7987C34.4524 25.3771 36.1092 25.3485 37.7002 25.7155C39.2913 26.0824 40.7682 26.8337 42.0016 27.9036C43.2351 28.9735 44.1875 30.3294 44.7756 31.8527C45.3637 33.3759 45.5695 35.0201 45.375 36.6413C45.2544 37.587 45.3515 38.5479 45.6589 39.4504C45.9663 40.3529 46.4759 41.1732 47.1488 41.8488L71.0875 65.7838C71.4358 66.132 71.7121 66.5454 71.9006 67.0004C72.0891 67.4554 72.1861 67.9431 72.1861 68.4356C72.1861 68.9281 72.0891 69.4158 71.9006 69.8708C71.7121 70.3258 71.4358 70.7393 71.0875 71.0875ZM48.9212 40.0875C48.5169 39.6789 48.2114 39.1831 48.0281 38.6382C47.8448 38.0933 47.7886 37.5137 47.8638 36.9437C48.1316 34.7219 47.7976 32.4689 46.8967 30.4203C45.9958 28.3716 44.5611 26.6027 42.7426 25.2983C40.924 23.994 38.7885 23.2022 36.5592 23.0057C34.3298 22.8091 32.0887 23.2152 30.07 24.1812C29.8899 24.2677 29.7331 24.3961 29.6128 24.5557C29.4925 24.7152 29.4122 24.9013 29.3787 25.0983C29.3451 25.2953 29.3593 25.4975 29.42 25.6878C29.4807 25.8782 29.5861 26.0513 29.7275 26.1925L36.25 32.7137V36.25H32.7137L26.1925 29.7275C26.0513 29.5861 25.8782 29.4807 25.6878 29.42C25.4975 29.3593 25.2953 29.3451 25.0983 29.3787C24.9013 29.4122 24.7152 29.4925 24.5557 29.6128C24.3961 29.7331 24.2677 29.8899 24.1812 30.07C23.2155 32.0881 22.8095 34.3286 23.0057 36.5572C23.2019 38.7859 23.9932 40.9209 25.2968 42.7392C26.6004 44.5575 28.3685 45.9922 30.4162 46.8935C32.464 47.7947 34.7162 48.1294 36.9375 47.8625C37.5076 47.7876 38.0872 47.844 38.6321 48.0275C39.177 48.211 39.6727 48.5167 40.0812 48.9212L46.5112 55.35C42.2634 57.4959 37.3899 58.0578 32.7652 56.9348C28.1405 55.8118 24.0674 53.0775 21.2767 49.2225C18.486 45.3675 17.1605 40.6441 17.538 35.9C17.9155 31.1559 19.9713 26.7017 23.3365 23.3365C26.7017 19.9713 31.1559 17.9155 35.9 17.538C40.6441 17.1605 45.3675 18.486 49.2225 21.2767C53.0775 24.0674 55.8118 28.1405 56.9348 32.7652C58.0578 37.3899 57.4959 42.2634 55.35 46.5112L48.9212 40.0875ZM64.5687 42.295C63.966 45.745 62.7038 49.0465 60.8512 52.0188L57.1963 48.3638C59.8186 43.6117 60.6371 38.0727 59.5011 32.7654C58.3651 27.458 55.3511 22.7393 51.0134 19.477C46.6757 16.2147 41.306 14.6282 35.8918 15.0094C30.4777 15.3905 25.3832 17.7137 21.5453 21.5516C17.7074 25.3894 15.3843 30.4839 15.0031 35.8981C14.622 41.3122 16.2084 46.6819 19.4707 51.0197C22.733 55.3574 27.4518 58.3714 32.7591 59.5074C38.0665 60.6433 43.6055 59.8249 48.3575 57.2025L52.0125 60.8575C49.0403 62.71 45.7388 63.9722 42.2887 64.575C41.9993 64.6246 41.7365 64.7746 41.5466 64.9986C41.3567 65.2226 41.2517 65.5063 41.25 65.8V72.5H33.75V65.8C33.7498 65.5052 33.6455 65.22 33.4554 64.9947C33.2653 64.7694 33.0018 64.6186 32.7113 64.5687C28.7681 63.8785 25.0255 62.3275 21.75 60.0262C21.5093 59.8571 21.2166 59.7783 20.9235 59.8036C20.6303 59.829 20.3556 59.957 20.1475 60.165L15.4075 64.8962L10.11 59.5988L14.8413 54.8587C15.0493 54.6507 15.1772 54.3759 15.2026 54.0828C15.228 53.7897 15.1492 53.497 14.98 53.2562C12.6779 49.9789 11.1269 46.2341 10.4375 42.2887C10.3875 41.9972 10.2357 41.7328 10.0091 41.5426C9.78254 41.3524 9.49583 41.2487 9.2 41.25H2.5V33.75H9.2C9.49476 33.7498 9.77997 33.6455 10.0053 33.4554C10.2306 33.2653 10.3814 33.0018 10.4313 32.7113C11.1215 28.7681 12.6725 25.0255 14.9738 21.75C15.1429 21.5093 15.2217 21.2166 15.1964 20.9235C15.171 20.6303 15.043 20.3556 14.835 20.1475L10.1038 15.4075L15.4012 10.11L20.1413 14.8413C20.3493 15.0493 20.6241 15.1772 20.9172 15.2026C21.2103 15.228 21.503 15.1492 21.7438 14.98C25.0211 12.6779 28.7659 11.1269 32.7113 10.4375C33.0028 10.3875 33.2672 10.2357 33.4574 10.0091C33.6476 9.78254 33.7513 9.49583 33.75 9.2V2.5H41.25V9.2C41.2502 9.49476 41.3545 9.77997 41.5446 10.0053C41.7347 10.2306 41.9982 10.3814 42.2887 10.4313C46.2341 11.1206 49.9789 12.6716 53.2562 14.9738C53.497 15.1429 53.7897 15.2217 54.0828 15.1964C54.3759 15.171 54.6507 15.043 54.8587 14.835L59.5988 10.1038L64.8962 15.4012L60.165 20.1413C59.957 20.3493 59.829 20.6241 59.8036 20.9172C59.7783 21.2103 59.8571 21.503 60.0262 21.7438C62.3284 25.0211 63.8794 28.7659 64.5687 32.7113C64.6186 33.0018 64.7694 33.2653 64.9947 33.4554C65.22 33.6455 65.5052 33.7498 65.8 33.75H72.5V41.25H65.8C65.5052 41.2502 65.22 41.3545 64.9947 41.5446C64.7694 41.7347 64.6186 41.9982 64.5687 42.2887V42.295Z" fill="#1D2025"/>
<path d="M45.455 43.6875C45.3397 43.5681 45.2018 43.4729 45.0493 43.4074C44.8968 43.3419 44.7327 43.3074 44.5668 43.306C44.4008 43.3045 44.2362 43.3361 44.0826 43.399C43.929 43.4618 43.7894 43.5547 43.672 43.672C43.5547 43.7894 43.4618 43.929 43.399 44.0826C43.3361 44.2362 43.3045 44.4008 43.306 44.5668C43.3074 44.7327 43.3419 44.8968 43.4074 45.0493C43.4729 45.2018 43.5681 45.3397 43.6875 45.455L44.5713 46.3388C44.807 46.5665 45.1228 46.6925 45.4505 46.6896C45.7783 46.6868 46.0918 46.5553 46.3235 46.3235C46.5553 46.0918 46.6868 45.7783 46.6896 45.4505C46.6925 45.1228 46.5665 44.807 46.3388 44.5713L45.455 43.6875Z" fill="#1D2025"/>
<path d="M63.1326 64.9001C63.3683 65.1278 63.6841 65.2537 64.0118 65.2509C64.3396 65.2481 64.6531 65.1166 64.8848 64.8848C65.1166 64.6531 65.2481 64.3396 65.2509 64.0118C65.2537 63.6841 65.1278 63.3683 64.9001 63.1326L49.8751 48.1063C49.6405 47.8718 49.3224 47.74 48.9907 47.74C48.659 47.74 48.3409 47.8718 48.1063 48.1063C47.8718 48.3409 47.74 48.659 47.74 48.9907C47.74 49.3224 47.8718 49.6405 48.1063 49.8751L63.1326 64.9001Z" fill="#1D2025"/>
<path d="M67.5526 69.3201C67.7883 69.5478 68.1041 69.6738 68.4318 69.6709C68.7596 69.6681 69.0731 69.5366 69.3049 69.3049C69.5366 69.0731 69.6681 68.7596 69.6709 68.4318C69.6738 68.1041 69.5478 67.7883 69.3201 67.5526L68.4363 66.6676C68.2018 66.433 67.8837 66.3013 67.552 66.3013C67.2203 66.3013 66.9021 66.433 66.6676 66.6676C66.433 66.9021 66.3013 67.2203 66.3013 67.552C66.3013 67.8837 66.433 68.2018 66.6676 68.4363L67.5526 69.3201Z" fill="#1D2025"/>
</g>
<defs>
<clipPath id="clip0_1_172">
<rect width="75" height="75" fill="white"/>
</clipPath>
</defs>
</svg>
