<svg width="75" height="75" viewBox="0 0 75 75" fill="none" xmlns="http://www.w3.org/2000/svg">
<g clip-path="url(#clip0_1_156)">
<path d="M62.4738 8.49976C62.464 8.45642 62.4377 8.42224 62.4249 8.38135C62.4036 8.31116 62.3755 8.24341 62.3413 8.17871C62.3022 8.10425 62.2552 8.03467 62.2015 7.96997C62.1582 7.91626 62.1106 7.86621 62.0587 7.81982C61.9958 7.76672 61.9269 7.72095 61.8536 7.6825C61.792 7.64526 61.7267 7.61353 61.6589 7.58728C61.5778 7.56165 61.4935 7.54456 61.4087 7.53601C61.3568 7.52075 61.3037 7.50854 61.25 7.5H54.9475C54.6252 3.1488 52.6062 0 50 0C47.3938 0 45.3748 3.1488 45.0525 7.5H42.4475C42.1252 3.1488 40.1062 0 37.5 0C34.8938 0 32.8748 3.1488 32.5525 7.5H29.9475C29.6252 3.1488 27.6062 0 25 0C22.3938 0 20.3748 3.1488 20.0525 7.5H17.4475C17.1252 3.1488 15.1062 0 12.5 0C9.8938 0 7.87476 3.1488 7.55249 7.5H1.25C0.559692 7.5 0 8.05969 0 8.75V73.75C0 74.4403 0.559692 75 1.25 75H61.25C61.9403 75 62.5 74.4403 62.5 73.75V70H73.75C74.1254 70 74.4806 69.8309 74.7174 69.5404C74.9548 69.2493 75.0488 68.8678 74.9738 68.4998L62.4738 8.49976ZM50 2.5C50.9027 2.5 52.1625 4.41528 52.4402 7.5H47.5647C47.8375 4.41528 49.0973 2.5 50 2.5ZM37.5 2.5C38.4027 2.5 39.6625 4.41528 39.9402 7.5H35.0647C35.3375 4.41528 36.5973 2.5 37.5 2.5ZM25 2.5C25.9027 2.5 27.1625 4.41528 27.4402 7.5H22.5647C22.8375 4.41528 24.0973 2.5 25 2.5ZM12.5 2.5C13.4027 2.5 14.6625 4.41528 14.9402 7.5H10.0647C10.3375 4.41528 11.5973 2.5 12.5 2.5ZM2.5 10H7.55249C7.87476 14.3512 9.8938 17.5 12.5 17.5C13.1903 17.5 13.75 16.9403 13.75 16.25C13.75 15.5597 13.1903 15 12.5 15C11.5973 15 10.3375 13.0847 10.0598 10H20.0525C20.379 14.3512 22.3938 17.5 25 17.5C25.6903 17.5 26.25 16.9403 26.25 16.25C26.25 15.5597 25.6903 15 25 15C24.0973 15 22.8375 13.0847 22.5598 10H32.5525C32.879 14.3512 34.8938 17.5 37.5 17.5C38.1903 17.5 38.75 16.9403 38.75 16.25C38.75 15.5597 38.1903 15 37.5 15C36.5973 15 35.3375 13.0847 35.0598 10H45.0525C45.379 14.3512 47.3938 17.5 50 17.5C50.6903 17.5 51.25 16.9403 51.25 16.25C51.25 15.5597 50.6903 15 50 15C49.0973 15 47.8375 13.0847 47.5598 10H60V22.5H2.5V10ZM60 72.5H2.5V25H60V72.5ZM62.5 67.5V20.8752L72.2137 67.5H62.5Z" fill="#1D2025"/>
<path d="M27.5 45H22.5C21.8097 45 21.25 45.5597 21.25 46.25V51.25C21.25 51.9403 21.8097 52.5 22.5 52.5H27.5C28.1903 52.5 28.75 51.9403 28.75 51.25V46.25C28.75 45.5597 28.1903 45 27.5 45ZM26.25 50H23.75V47.5H26.25V50Z" fill="#1D2025"/>
<path d="M40 45H35C34.3097 45 33.75 45.5597 33.75 46.25V51.25C33.75 51.9403 34.3097 52.5 35 52.5H40C40.6903 52.5 41.25 51.9403 41.25 51.25V46.25C41.25 45.5597 40.6903 45 40 45ZM38.75 50H36.25V47.5H38.75V50Z" fill="#1D2025"/>
<path d="M15 45H10C9.30969 45 8.75 45.5597 8.75 46.25V51.25C8.75 51.9403 9.30969 52.5 10 52.5H15C15.6903 52.5 16.25 51.9403 16.25 51.25V46.25C16.25 45.5597 15.6903 45 15 45ZM13.75 50H11.25V47.5H13.75V50Z" fill="#1D2025"/>
<path d="M27.5 57.5H22.5C21.8097 57.5 21.25 58.0597 21.25 58.75V63.75C21.25 64.4403 21.8097 65 22.5 65H27.5C28.1903 65 28.75 64.4403 28.75 63.75V58.75C28.75 58.0597 28.1903 57.5 27.5 57.5ZM26.25 62.5H23.75V60H26.25V62.5Z" fill="#1D2025"/>
<path d="M40 57.5H35C34.3097 57.5 33.75 58.0597 33.75 58.75V63.75C33.75 64.4403 34.3097 65 35 65H40C40.6903 65 41.25 64.4403 41.25 63.75V58.75C41.25 58.0597 40.6903 57.5 40 57.5ZM38.75 62.5H36.25V60H38.75V62.5Z" fill="#1D2025"/>
<path d="M15 57.5H10C9.30969 57.5 8.75 58.0597 8.75 58.75V63.75C8.75 64.4403 9.30969 65 10 65H15C15.6903 65 16.25 64.4403 16.25 63.75V58.75C16.25 58.0597 15.6903 57.5 15 57.5ZM13.75 62.5H11.25V60H13.75V62.5Z" fill="#1D2025"/>
<path d="M27.5 32.5H22.5C21.8097 32.5 21.25 33.0597 21.25 33.75V38.75C21.25 39.4403 21.8097 40 22.5 40H27.5C28.1903 40 28.75 39.4403 28.75 38.75V33.75C28.75 33.0597 28.1903 32.5 27.5 32.5ZM26.25 37.5H23.75V35H26.25V37.5Z" fill="#1D2025"/>
<path d="M40 32.5H35C34.3097 32.5 33.75 33.0597 33.75 33.75V38.75C33.75 39.4403 34.3097 40 35 40H40C40.6903 40 41.25 39.4403 41.25 38.75V33.75C41.25 33.0597 40.6903 32.5 40 32.5ZM38.75 37.5H36.25V35H38.75V37.5Z" fill="#1D2025"/>
<path d="M52.5 45H47.5C46.8097 45 46.25 45.5597 46.25 46.25V51.25C46.25 51.9403 46.8097 52.5 47.5 52.5H52.5C53.1903 52.5 53.75 51.9403 53.75 51.25V46.25C53.75 45.5597 53.1903 45 52.5 45ZM51.25 50H48.75V47.5H51.25V50Z" fill="#1D2025"/>
<path d="M52.5 57.5H47.5C46.8097 57.5 46.25 58.0597 46.25 58.75V63.75C46.25 64.4403 46.8097 65 47.5 65H52.5C53.1903 65 53.75 64.4403 53.75 63.75V58.75C53.75 58.0597 53.1903 57.5 52.5 57.5ZM51.25 62.5H48.75V60H51.25V62.5Z" fill="#1D2025"/>
<path d="M52.5 32.5H47.5C46.8097 32.5 46.25 33.0597 46.25 33.75V38.75C46.25 39.4403 46.8097 40 47.5 40H52.5C53.1903 40 53.75 39.4403 53.75 38.75V33.75C53.75 33.0597 53.1903 32.5 52.5 32.5ZM51.25 37.5H48.75V35H51.25V37.5Z" fill="#1D2025"/>
<path d="M15 32.5H10C9.30969 32.5 8.75 33.0597 8.75 33.75V38.75C8.75 39.4403 9.30969 40 10 40H15C15.6903 40 16.25 39.4403 16.25 38.75V33.75C16.25 33.0597 15.6903 32.5 15 32.5ZM13.75 37.5H11.25V35H13.75V37.5Z" fill="#1D2025"/>
</g>
<defs>
<clipPath id="clip0_1_156">
<rect width="75" height="75" fill="white"/>
</clipPath>
</defs>
</svg>
