<svg width="75" height="75" viewBox="0 0 75 75" fill="none" xmlns="http://www.w3.org/2000/svg">
<g clip-path="url(#clip0_1_180)">
<path d="M3.24465 44.1828C2.93947 42.6026 2.74416 41.0034 2.6581 39.3964C2.62087 38.7061 2.03127 38.1763 1.34035 38.2135C0.650043 38.2514 0.120869 38.841 0.1581 39.5313C0.249042 41.2518 0.457783 42.9645 0.7831 44.6564C0.896625 45.2435 1.40993 45.6677 2.00807 45.669C2.08803 45.669 2.16799 45.661 2.24672 45.6464C2.57326 45.5853 2.86257 45.3961 3.04933 45.1215C3.23671 44.8468 3.3069 44.5093 3.24465 44.1828Z" fill="#1D2025"/>
<path d="M8.82694 57.4248C8.43387 56.8572 7.65445 56.7156 7.08683 57.1087C6.5192 57.5017 6.3776 58.2812 6.77067 58.8488C7.75272 60.2654 8.8306 61.6131 9.9982 62.8814C10.4651 63.3898 11.2561 63.4234 11.7646 62.9565C12.273 62.4889 12.3066 61.6985 11.8396 61.1901C10.7502 60.0054 9.74369 58.7475 8.82694 57.4248Z" fill="#1D2025"/>
<path d="M1.3806 35.7124C1.41539 35.7148 1.44957 35.7148 1.48436 35.7124C2.13683 35.7148 2.68065 35.2149 2.73436 34.5649C2.86559 32.9609 3.10912 31.3679 3.4619 29.7975C3.61327 29.123 3.18846 28.4535 2.51341 28.3021C1.83898 28.1507 1.16942 28.5755 1.01805 29.25C0.638415 30.9345 0.375964 32.6435 0.231921 34.3641C0.204455 34.6955 0.310656 35.0239 0.52611 35.2772C0.741564 35.5299 1.04918 35.6867 1.3806 35.7124Z" fill="#1D2025"/>
<path d="M19.2633 67.3162C17.8925 66.4714 16.582 65.5327 15.3406 64.5073C14.8084 64.0679 14.0204 64.1429 13.5803 64.6752C13.1409 65.2074 13.2159 65.9954 13.7482 66.4348C15.0787 67.5322 16.4819 68.5375 17.9492 69.4438C18.3295 69.6984 18.8184 69.7252 19.2236 69.5134C19.6295 69.3016 19.8871 68.8854 19.895 68.4276C19.903 67.9705 19.6606 67.545 19.2633 67.3186V67.3162Z" fill="#1D2025"/>
<path d="M3.22453 25.91C3.36491 25.9625 3.51384 25.9899 3.66459 25.9899C4.18522 25.9899 4.65092 25.6671 4.83464 25.18C5.25639 24.0539 5.73735 22.9504 6.27568 21.875C6.5778 21.2585 6.32633 20.5139 5.71171 20.2069C5.0977 19.8999 4.35124 20.1458 4.03935 20.7574C3.46379 21.911 2.94743 23.0932 2.49333 24.2999C2.25041 24.9462 2.57756 25.6677 3.22453 25.91Z" fill="#1D2025"/>
<path d="M4.48183 48.8414C4.25844 48.1878 3.54738 47.8392 2.8937 48.0632C2.24001 48.2866 1.89211 48.9977 2.1155 49.6514C2.67641 51.2822 3.34841 52.8734 4.12661 54.4127C4.44704 55.0121 5.1874 55.2459 5.79408 54.9389C6.40016 54.6318 6.65041 53.897 6.35683 53.2836C5.63051 51.848 5.00368 50.3637 4.48183 48.8414Z" fill="#1D2025"/>
<path d="M28.0756 71.1878C26.5265 70.7514 25.0098 70.2088 23.5358 69.5624C22.9084 69.3116 22.1955 69.6039 21.9251 70.2228C21.6547 70.8417 21.9251 71.5631 22.5354 71.8524C24.1162 72.5464 25.7422 73.1311 27.403 73.6023C27.5141 73.6335 27.6282 73.6493 27.743 73.6499C28.368 73.6512 28.8977 73.1903 28.9832 72.5708C29.0686 71.9519 28.6835 71.3648 28.0817 71.1963L28.0756 71.1878Z" fill="#1D2025"/>
<path d="M7.27907 48.0103C7.54213 48.6487 8.27272 48.9533 8.91115 48.6908C9.54958 48.4278 9.85475 47.6972 9.59169 47.0587C8.98134 45.5835 8.49794 44.0582 8.14821 42.5C7.99868 41.8256 7.33095 41.4002 6.65651 41.5497C5.98147 41.6986 5.55605 42.367 5.70559 43.0414C6.08767 44.7394 6.6144 46.4014 7.27907 48.0103Z" fill="#1D2025"/>
<path d="M7.50556 29.1651C7.62702 29.203 7.75336 29.2225 7.88093 29.2225C8.42658 29.2225 8.90937 28.8685 9.07294 28.3479C9.55085 26.8202 10.1496 25.3333 10.8643 23.9015C11.175 23.2844 10.9266 22.5324 10.3101 22.2218C9.69306 21.9111 8.94111 22.1595 8.63044 22.7766C7.8559 24.3281 7.20649 25.9388 6.6883 27.5941C6.58759 27.9109 6.6175 28.2545 6.7707 28.5493C6.9239 28.8441 7.18879 29.0656 7.50556 29.1651Z" fill="#1D2025"/>
<path d="M7.60681 37.7563V37.5165C7.62695 36.0126 7.75207 34.5123 7.98157 33.0261C8.05847 32.5805 7.88818 32.1283 7.53662 31.8439C7.18506 31.5588 6.70715 31.4862 6.28662 31.654C5.8667 31.8213 5.57007 32.2027 5.51086 32.6514C5.26367 34.2505 5.12878 35.8649 5.10681 37.4823V37.8149C5.10803 38.1439 5.24048 38.4582 5.47546 38.6877C5.71106 38.9172 6.02844 39.0429 6.35681 39.0362C7.05322 39.0228 7.60986 38.4527 7.60681 37.7563Z" fill="#1D2025"/>
<path d="M21.4618 61.9812C20.1569 61.04 18.9185 60.0091 17.757 58.8965C17.2559 58.4381 16.4807 58.4637 16.0108 58.9544C15.5414 59.4446 15.5487 60.2203 16.0279 60.7013C17.2736 61.8963 18.6017 63.0023 20.0019 64.0112C20.5622 64.4146 21.3434 64.2871 21.7469 63.7262C22.1503 63.1659 22.0227 62.3846 21.4618 61.9812Z" fill="#1D2025"/>
<path d="M29.9817 66.3098C28.4589 65.8289 26.9794 65.221 25.5579 64.4928C24.9432 64.1785 24.1901 64.422 23.8763 65.0366C23.562 65.6519 23.8055 66.4044 24.4208 66.7188C25.9668 67.5104 27.5769 68.1714 29.2328 68.6951C29.892 68.902 30.5933 68.5364 30.8008 67.8778C31.0077 67.2192 30.6415 66.5173 29.9829 66.3098H29.9817Z" fill="#1D2025"/>
<path d="M14.303 57.0848C14.8425 56.6545 14.9316 55.8684 14.502 55.3289C13.4961 54.0697 12.5775 52.7434 11.7517 51.3597C11.535 50.9539 11.1121 50.7 10.6512 50.6987C10.191 50.6981 9.76685 50.9508 9.54895 51.3561C9.33044 51.762 9.35242 52.2545 9.60693 52.6384C10.4901 54.1198 11.4728 55.54 12.5482 56.8889C12.9785 57.4291 13.7659 57.5176 14.3054 57.0861L14.303 57.0848Z" fill="#1D2025"/>
<path d="M37.6069 4.88102e-05C30.4322 -0.0115479 23.4058 2.0435 17.3682 5.91985L12.2755 0.402881C11.9471 0.0464355 11.4423 -0.0872315 10.9803 0.0586425C10.5183 0.205127 10.1826 0.604907 10.1179 1.08525L7.61786 19.8352C7.56659 20.2228 7.69965 20.6122 7.97675 20.8875C8.25446 21.1628 8.64508 21.2922 9.03205 21.2378L26.532 18.7378C26.991 18.6713 27.3762 18.3558 27.5312 17.9187C27.6868 17.4811 27.5867 16.9934 27.2718 16.6529L22.5641 11.554C33.4815 5.21733 47.1967 6.39226 56.8769 14.4928C66.557 22.5934 70.1313 35.8869 65.8185 47.7497C61.5064 59.6124 50.2295 67.5073 37.6069 67.5H37.5916C36.6047 67.5 35.6183 67.4396 34.6381 67.32C33.9527 67.237 33.3295 67.7258 33.2471 68.4113C33.1641 69.0967 33.6524 69.7199 34.3384 69.8023C35.4163 69.9335 36.5021 69.9994 37.5879 70H37.6069C51.4801 70.011 63.8312 61.214 68.3558 48.0994C72.8803 34.9842 68.581 20.4432 57.6514 11.8976C46.7225 3.3521 31.5735 2.6862 19.9372 10.2399C19.629 10.4413 19.4251 10.7679 19.3793 11.1329C19.3342 11.4985 19.452 11.8647 19.7016 12.1351L23.827 16.6004L10.3144 18.5328L12.2443 4.05522L16.2446 8.39787C16.6651 8.85441 17.3572 8.93315 17.8693 8.58281C30.2894 0.114185 46.7292 0.521899 58.714 9.59599C70.6983 18.6695 75.5506 34.383 70.7685 48.6341C65.987 62.8852 52.6392 72.4915 37.6069 72.5C35.9974 72.5006 34.3903 72.3908 32.7955 72.1729C32.1186 72.0905 31.5003 72.5672 31.4075 73.2428C31.3141 73.9185 31.7804 74.5447 32.4543 74.6491C46.3306 76.5613 60.1154 70.5811 68.1995 59.1419C76.2836 47.7033 77.3182 32.7124 70.8826 20.271C64.4471 7.82963 51.6138 0.0122558 37.6069 4.88102e-05Z" fill="#1D2025"/>
<path d="M37.6068 13.75C36.9165 13.75 36.3568 14.3097 36.3568 15V37.5C36.3568 37.8314 36.4886 38.1494 36.723 38.3838L49.223 50.8838C49.7137 51.3574 50.4932 51.3507 50.9753 50.8685C51.4575 50.3863 51.4642 49.6069 50.9906 49.1162L38.8568 36.9824V15C38.8568 14.3097 38.2971 13.75 37.6068 13.75Z" fill="#1D2025"/>
</g>
<defs>
<clipPath id="clip0_1_180">
<rect width="75" height="75" fill="white"/>
</clipPath>
</defs>
</svg>
