<svg width="75" height="75" viewBox="0 0 75 75" fill="none" xmlns="http://www.w3.org/2000/svg">
<g clip-path="url(#clip0_1_198)">
<path d="M37.5 75C35.256 75 33.5468 73.1063 32.0333 71.4345C31.2563 70.3795 30.2465 69.5177 29.0824 68.9162C27.7177 68.8396 26.3539 69.0838 25.1006 69.6293C22.8927 70.3312 20.6125 71.0593 18.7425 69.9821C16.8476 68.8851 16.3364 66.5226 15.844 64.2374C15.6945 62.904 15.237 61.6236 14.5076 60.4974C13.3818 59.7671 12.1012 59.3095 10.7675 59.161C8.48238 58.6623 6.11993 58.1636 5.02286 56.2625C3.94323 54.3925 4.67254 52.1135 5.37566 49.9044C5.92102 48.6494 6.16359 47.2836 6.08378 45.9176C5.48229 44.7535 4.62055 43.7437 3.56549 42.9667C1.8937 41.4532 0 39.744 0 37.5C0 35.256 1.8937 33.5468 3.56549 32.0333C4.62055 31.2563 5.48229 30.2465 6.08378 29.0824C6.16123 27.7176 5.91697 26.3537 5.37068 25.1006C4.66755 22.8939 3.93825 20.6125 5.01787 18.7425C6.11494 16.8476 8.47739 16.3364 10.7626 15.844C12.096 15.6945 13.3764 15.237 14.5026 14.5076C15.2329 13.3818 15.6905 12.1012 15.839 10.7675C16.3377 8.48238 16.8364 6.11993 18.7375 5.02286C20.6075 3.94323 22.8865 4.67129 25.0956 5.37566C26.3485 5.92277 27.7126 6.16706 29.0775 6.08876C30.2439 5.48648 31.2555 4.62295 32.0333 3.56549C33.5468 1.8937 35.256 0 37.5 0C39.744 0 41.4532 1.8937 42.9667 3.56549C43.7437 4.62055 44.7535 5.48229 45.9176 6.08378C47.2824 6.1617 48.6465 5.91742 49.8994 5.37068C52.106 4.66755 54.3875 3.93825 56.2575 5.01912C58.1512 6.11494 58.6623 8.47864 59.1548 10.7638C59.304 12.0973 59.7616 13.3777 60.4912 14.5038C61.6171 15.2338 62.8977 15.6914 64.2312 15.8403C66.5164 16.3389 68.8801 16.8376 69.9759 18.7388C71.0555 20.6088 70.3275 22.8865 69.6231 25.0968C69.0764 26.3498 68.8317 27.7138 68.9087 29.0787C69.511 30.2437 70.3741 31.254 71.4308 32.0308C73.1063 33.5468 75 35.256 75 37.5C75 39.744 73.1063 41.4532 71.4345 42.9667C70.3796 43.7438 69.5179 44.7536 68.9162 45.9176C68.8383 47.285 69.083 48.6515 69.6306 49.9069C70.3349 52.1135 71.063 54.3949 69.9834 56.265C68.8876 58.1599 66.5239 58.671 64.2387 59.1635C62.9053 59.313 61.6249 59.7705 60.4987 60.4999C59.7686 61.6259 59.3107 62.9064 59.161 64.2399C58.6623 66.5251 58.1636 68.8863 56.265 69.9821C54.3949 71.0618 52.1148 70.3349 49.9069 69.6306C48.6545 69.0849 47.2915 68.8407 45.9275 68.9175C44.7625 69.5192 43.7523 70.3819 42.9754 71.4382C41.4532 73.1063 39.744 75 37.5 75ZM28.4878 66.1486C28.9226 66.1449 29.356 66.1986 29.7768 66.3082C31.4732 66.9993 32.945 68.1467 34.0293 69.6231C35.2223 70.9408 36.4565 72.3034 37.5 72.3034C38.5435 72.3034 39.7777 70.9408 40.9707 69.6243C42.0546 68.1473 43.5265 66.9994 45.2232 66.3082C46.9336 65.8506 48.8585 66.464 50.7185 67.0562C52.2881 67.5549 54.0696 68.1296 54.9073 67.6446C55.7688 67.1459 56.169 65.2959 56.5205 63.664C56.9294 61.7728 57.3521 59.8167 58.5863 58.5825C60.0562 57.4378 61.8147 56.7232 63.6665 56.518C65.2996 56.1652 67.1497 55.77 67.6558 54.8974C68.137 54.0621 67.5686 52.2793 67.0674 50.7098C66.3147 48.9815 66.0557 47.0785 66.3194 45.2119C67.0114 43.5161 68.1592 42.0448 69.6356 40.9608C70.952 39.7677 72.3147 38.5335 72.3147 37.49C72.3147 36.4466 70.952 35.2123 69.6356 34.0193C68.1588 32.9351 67.0111 31.4633 66.3194 29.7669C66.0558 27.9008 66.3148 25.9981 67.0674 24.2703C67.5661 22.6995 68.137 20.918 67.6558 20.0827C67.1572 19.2212 65.3058 18.8211 63.6727 18.4695C61.7827 18.0606 59.8267 17.6392 58.5925 16.4038C57.3583 15.1683 56.9369 13.2148 56.528 11.3236C56.1764 9.69166 55.78 7.84159 54.9073 7.34167C54.077 6.8617 52.2893 7.42769 50.7185 7.9301C48.8585 8.52352 46.9361 9.13813 45.2219 8.67811C43.5258 7.98646 42.0544 6.83867 40.9707 5.36195C39.7777 4.05544 38.5435 2.69282 37.5 2.69282C36.4565 2.69282 35.2223 4.05544 34.0293 5.37317C32.945 6.84956 31.4732 7.99692 29.7768 8.68808C28.0652 9.1481 26.1415 8.53225 24.2815 7.94008C22.7094 7.44141 20.9267 6.87043 20.0939 7.35289C19.2312 7.85156 18.831 9.70163 18.4732 11.3348C18.0643 13.2247 17.643 15.1808 16.4075 16.415C14.9377 17.5599 13.1791 18.2746 11.3273 18.4795C9.69539 18.8323 7.84408 19.2275 7.34541 20.0939C6.86295 20.9292 7.43143 22.7119 7.93384 24.2827C8.52601 26.1415 9.14062 28.0639 8.68185 29.7781C7.99221 31.4732 6.84708 32.9445 5.37317 34.0293C4.05544 35.2223 2.69282 36.4565 2.69282 37.5C2.69282 38.5435 4.05544 39.7777 5.37317 40.9707C6.85047 42.0567 7.99791 43.5308 8.68808 45.2294C9.14686 46.9436 8.53225 48.8659 7.94008 50.7247C7.44141 52.2968 6.86918 54.0783 7.35289 54.9123C7.85156 55.775 9.70163 56.1752 11.3348 56.5268C13.2247 56.9357 15.1808 57.357 16.415 58.5925C17.5599 60.0623 18.2746 61.8209 18.4795 63.6727C18.8323 65.3046 19.2275 67.1559 20.0939 67.6546C20.9304 68.1383 22.7119 67.5686 24.2827 67.0662C25.6311 66.554 27.0484 66.246 28.4878 66.1523V66.1486Z" fill="#1D2025"/>
<path d="M37.5 63.6453C32.329 63.6453 27.2741 62.1119 22.9745 59.239C18.6749 56.3661 15.3238 52.2828 13.3449 47.5054C11.3661 42.728 10.8483 37.471 11.8571 32.3993C12.8659 27.3276 15.356 22.669 19.0125 19.0125C22.669 15.356 27.3276 12.8659 32.3993 11.8571C37.471 10.8483 42.728 11.3661 47.5054 13.3449C52.2828 15.3238 56.3661 18.6749 59.239 22.9745C62.1119 27.2741 63.6453 32.329 63.6453 37.5C63.6361 44.4313 60.8785 51.0761 55.9773 55.9773C51.0761 60.8785 44.4313 63.6361 37.5 63.6453ZM37.5 13.7783C32.8083 13.7783 28.222 15.1695 24.3209 17.7761C20.4199 20.3827 17.3794 24.0875 15.584 28.4221C13.7886 32.7567 13.3188 37.5263 14.2341 42.1279C15.1494 46.7295 17.4087 50.9563 20.7262 54.2738C24.0438 57.5914 28.2706 59.8506 32.8721 60.766C37.4737 61.6813 42.2434 61.2115 46.5779 59.416C50.9125 57.6206 54.6174 54.5801 57.2239 50.6791C59.8305 46.7781 61.2218 42.1917 61.2218 37.5C61.2145 31.2109 58.7129 25.1814 54.2658 20.7342C49.8187 16.2871 43.7892 13.7855 37.5 13.7783Z" fill="#1D2025"/>
<path d="M54.9534 32.5132C54.9505 31.5222 54.5555 30.5727 53.8547 29.8719C53.154 29.1712 52.2044 28.7762 51.2134 28.7732H44.98V22.5398C44.9771 21.5488 44.5821 20.5993 43.8813 19.8985C43.1806 19.1978 42.231 18.8028 41.24 18.7998H38.7466C38.416 18.7998 38.0989 18.9311 37.8651 19.1649C37.6313 19.3987 37.5 19.7158 37.5 20.0465V23.7865C37.4972 25.2265 36.9968 26.6213 36.0834 27.7345C35.1701 28.8478 33.9 29.6111 32.4883 29.8952C32.4607 29.5897 32.3203 29.3055 32.0944 29.098C31.8684 28.8906 31.5733 28.7748 31.2666 28.7732H21.2932C20.9625 28.7732 20.6454 28.9046 20.4117 29.1384C20.1779 29.3721 20.0465 29.6892 20.0465 30.0199V49.9667C20.0465 50.2973 20.1779 50.6144 20.4117 50.8482C20.6454 51.082 20.9625 51.2134 21.2932 51.2134H31.2666C31.5972 51.2134 31.9143 51.082 32.1481 50.8482C32.3819 50.6144 32.5133 50.2973 32.5133 49.9667V49.7922L33.7101 50.59C34.3226 50.999 35.0431 51.216 35.7796 51.2134H48.72C49.711 51.2104 50.6606 50.8154 51.3614 50.1147C52.0621 49.4139 52.4571 48.4643 52.4601 47.4733C52.4576 46.8293 52.2856 46.1972 51.9614 45.6407C52.4231 45.3529 52.8157 44.9669 53.1114 44.5102C53.4071 44.0535 53.5986 43.5373 53.6724 42.9983C53.7462 42.4593 53.7004 41.9106 53.5383 41.3912C53.3761 40.8719 53.1017 40.3946 52.7343 39.9933C53.3576 39.3122 53.7043 38.4231 53.7067 37.4999C53.7043 36.8559 53.5323 36.2238 53.2081 35.6673C53.7425 35.3327 54.1831 34.8676 54.4885 34.3159C54.7938 33.7641 54.9538 33.1438 54.9534 32.5132ZM30.0199 48.72H22.5399V31.2666H30.0199V48.72ZM51.2134 33.7599H47.4734C47.1427 33.7599 46.8256 33.8913 46.5918 34.1251C46.358 34.3588 46.2267 34.6759 46.2267 35.0066C46.2267 35.3372 46.358 35.6543 46.5918 35.8881C46.8256 36.1219 47.1427 36.2533 47.4734 36.2533H49.9667C50.2974 36.2533 50.6145 36.3846 50.8483 36.6184C51.082 36.8522 51.2134 37.1693 51.2134 37.4999C51.2134 37.8306 51.082 38.1477 50.8483 38.3815C50.6145 38.6153 50.2974 38.7466 49.9667 38.7466H47.4734C47.1427 38.7466 46.8256 38.878 46.5918 39.1118C46.358 39.3456 46.2267 39.6626 46.2267 39.9933C46.2267 40.3239 46.358 40.641 46.5918 40.8748C46.8256 41.1086 47.1427 41.24 47.4734 41.24H49.9667C50.2974 41.24 50.6145 41.3713 50.8483 41.6051C51.082 41.8389 51.2134 42.156 51.2134 42.4866C51.2134 42.8173 51.082 43.1344 50.8483 43.3682C50.6145 43.602 50.2974 43.7333 49.9667 43.7333H47.4734C47.1427 43.7333 46.8256 43.8647 46.5918 44.0985C46.358 44.3323 46.2267 44.6494 46.2267 44.98C46.2267 45.3106 46.358 45.6277 46.5918 45.8615C46.8256 46.0953 47.1427 46.2267 47.4734 46.2267H48.72C49.0507 46.2267 49.3678 46.358 49.6016 46.5918C49.8354 46.8256 49.9667 47.1427 49.9667 47.4733C49.9667 47.804 49.8354 48.1211 49.6016 48.3549C49.3678 48.5887 49.0507 48.72 48.72 48.72H35.7796C35.5348 48.7206 35.2956 48.6467 35.0939 48.5081L32.5133 46.8001V32.426C34.5892 32.1229 36.4869 31.0835 37.8602 29.4975C39.2334 27.9114 39.9905 25.8844 39.9933 23.7865V21.2932H41.24C41.5706 21.2932 41.8877 21.4245 42.1215 21.6583C42.3553 21.8921 42.4867 22.2092 42.4867 22.5398V30.0199C42.4867 30.3505 42.618 30.6676 42.8518 30.9014C43.0856 31.1352 43.4027 31.2666 43.7333 31.2666H51.2134C51.544 31.2666 51.8611 31.3979 52.0949 31.6317C52.3287 31.8655 52.4601 32.1826 52.4601 32.5132C52.4601 32.8439 52.3287 33.161 52.0949 33.3948C51.8611 33.6286 51.544 33.7599 51.2134 33.7599Z" fill="#1D2025"/>
</g>
<defs>
<clipPath id="clip0_1_198">
<rect width="75" height="75" fill="white"/>
</clipPath>
</defs>
</svg>
