<svg width="75" height="75" fill="none" xmlns="http://www.w3.org/2000/svg"><g clip-path="url(#clip0_1_156)" fill="#1D2025"><path d="M62.474 8.5c-.01-.044-.036-.078-.05-.119a1.145 1.145 0 00-.222-.411 1.271 1.271 0 00-.143-.15 1.134 1.134 0 00-.205-.138 1.245 1.245 0 00-.195-.095 1.247 1.247 0 00-.25-.051 1.271 1.271 0 00-.159-.036h-6.303C54.625 3.149 52.608 0 50 0c-2.606 0-4.625 3.149-4.947 7.5h-2.605C42.124 3.149 40.105 0 37.5 0c-2.606 0-4.625 3.149-4.947 7.5h-2.605C29.625 3.149 27.606 0 25 0c-2.606 0-4.625 3.149-4.948 7.5h-2.604C17.125 3.149 15.106 0 12.5 0 9.894 0 7.875 3.149 7.552 7.5H1.25C.56 7.5 0 8.06 0 8.75v65C0 74.44.56 75 1.25 75h60c.69 0 1.25-.56 1.25-1.25V70h11.25a1.248 1.248 0 001.224-1.5l-12.5-60zM50 2.5c.903 0 2.163 1.915 2.44 5h-4.875c.273-3.085 1.532-5 2.435-5zm-12.5 0c.903 0 2.163 1.915 2.44 5h-4.875c.273-3.085 1.532-5 2.435-5zM25 2.5c.903 0 2.163 1.915 2.44 5h-4.875c.272-3.085 1.532-5 2.435-5zm-12.5 0c.903 0 2.162 1.915 2.44 5h-4.875c.273-3.085 1.532-5 2.435-5zM2.5 10h5.052c.323 4.351 2.342 7.5 4.948 7.5a1.25 1.25 0 000-2.5c-.903 0-2.162-1.915-2.44-5h9.992c.327 4.351 2.342 7.5 4.948 7.5a1.25 1.25 0 000-2.5c-.903 0-2.163-1.915-2.44-5h9.993c.326 4.351 2.34 7.5 4.947 7.5a1.25 1.25 0 000-2.5c-.903 0-2.163-1.915-2.44-5h9.992c.327 4.351 2.342 7.5 4.948 7.5a1.25 1.25 0 000-2.5c-.903 0-2.163-1.915-2.44-5H60v12.5H2.5V10zM60 72.5H2.5V25H60v47.5zm2.5-5V20.875L72.214 67.5H62.5z"/><path d="M27.5 45h-5c-.69 0-1.25.56-1.25 1.25v5c0 .69.56 1.25 1.25 1.25h5c.69 0 1.25-.56 1.25-1.25v-5c0-.69-.56-1.25-1.25-1.25zm-1.25 5h-2.5v-2.5h2.5V50zM40 45h-5c-.69 0-1.25.56-1.25 1.25v5c0 .69.56 1.25 1.25 1.25h5c.69 0 1.25-.56 1.25-1.25v-5c0-.69-.56-1.25-1.25-1.25zm-1.25 5h-2.5v-2.5h2.5V50zM15 45h-5c-.69 0-1.25.56-1.25 1.25v5c0 .69.56 1.25 1.25 1.25h5c.69 0 1.25-.56 1.25-1.25v-5c0-.69-.56-1.25-1.25-1.25zm-1.25 5h-2.5v-2.5h2.5V50zm13.75 7.5h-5c-.69 0-1.25.56-1.25 1.25v5c0 .69.56 1.25 1.25 1.25h5c.69 0 1.25-.56 1.25-1.25v-5c0-.69-.56-1.25-1.25-1.25zm-1.25 5h-2.5V60h2.5v2.5zm13.75-5h-5c-.69 0-1.25.56-1.25 1.25v5c0 .69.56 1.25 1.25 1.25h5c.69 0 1.25-.56 1.25-1.25v-5c0-.69-.56-1.25-1.25-1.25zm-1.25 5h-2.5V60h2.5v2.5zM15 57.5h-5c-.69 0-1.25.56-1.25 1.25v5c0 .69.56 1.25 1.25 1.25h5c.69 0 1.25-.56 1.25-1.25v-5c0-.69-.56-1.25-1.25-1.25zm-1.25 5h-2.5V60h2.5v2.5zm13.75-30h-5c-.69 0-1.25.56-1.25 1.25v5c0 .69.56 1.25 1.25 1.25h5c.69 0 1.25-.56 1.25-1.25v-5c0-.69-.56-1.25-1.25-1.25zm-1.25 5h-2.5V35h2.5v2.5zm13.75-5h-5c-.69 0-1.25.56-1.25 1.25v5c0 .69.56 1.25 1.25 1.25h5c.69 0 1.25-.56 1.25-1.25v-5c0-.69-.56-1.25-1.25-1.25zm-1.25 5h-2.5V35h2.5v2.5zM52.5 45h-5c-.69 0-1.25.56-1.25 1.25v5c0 .69.56 1.25 1.25 1.25h5c.69 0 1.25-.56 1.25-1.25v-5c0-.69-.56-1.25-1.25-1.25zm-1.25 5h-2.5v-2.5h2.5V50zm1.25 7.5h-5c-.69 0-1.25.56-1.25 1.25v5c0 .69.56 1.25 1.25 1.25h5c.69 0 1.25-.56 1.25-1.25v-5c0-.69-.56-1.25-1.25-1.25zm-1.25 5h-2.5V60h2.5v2.5zm1.25-30h-5c-.69 0-1.25.56-1.25 1.25v5c0 .69.56 1.25 1.25 1.25h5c.69 0 1.25-.56 1.25-1.25v-5c0-.69-.56-1.25-1.25-1.25zm-1.25 5h-2.5V35h2.5v2.5zM15 32.5h-5c-.69 0-1.25.56-1.25 1.25v5c0 .69.56 1.25 1.25 1.25h5c.69 0 1.25-.56 1.25-1.25v-5c0-.69-.56-1.25-1.25-1.25zm-1.25 5h-2.5V35h2.5v2.5z"/></g><defs><clipPath id="clip0_1_156"><path fill="#fff" d="M0 0h75v75H0z"/></clipPath></defs></svg>