<svg width="75" height="75" fill="none" xmlns="http://www.w3.org/2000/svg"><g clip-path="url(#clip0_1_180)" fill="#1D2025"><path d="M3.245 44.183c-.306-1.58-.5-3.18-.587-4.787a1.252 1.252 0 10-2.5.135c.091 1.72.3 3.434.625 5.125a1.25 1.25 0 001.464.99 1.25 1.25 0 00.998-1.463zm5.582 13.242a1.25 1.25 0 00-2.056 1.424 37.483 37.483 0 003.227 4.032 1.25 1.25 0 001.842-1.69 35.11 35.11 0 01-3.013-3.766zM1.38 35.712a.749.749 0 00.104 0 1.25 1.25 0 001.25-1.147c.132-1.604.375-3.197.728-4.767a1.252 1.252 0 00-2.444-.548 37.487 37.487 0 00-.786 5.114 1.25 1.25 0 001.149 1.348zm17.883 31.604a34.966 34.966 0 01-3.922-2.809 1.25 1.25 0 00-1.593 1.928 37.917 37.917 0 004.201 3.009 1.25 1.25 0 101.314-2.125v-.003zM3.225 25.91a1.25 1.25 0 001.61-.73 34.11 34.11 0 011.44-3.305 1.25 1.25 0 00-2.236-1.118A37.591 37.591 0 002.493 24.3a1.25 1.25 0 00.732 1.61zm1.257 22.931a1.25 1.25 0 10-2.367.81 37.814 37.814 0 002.012 4.762 1.25 1.25 0 002.23-1.13 34.935 34.935 0 01-1.875-4.442zm23.594 22.347a34.794 34.794 0 01-4.54-1.626 1.25 1.25 0 00-1 2.29 37.719 37.719 0 004.867 1.75 1.25 1.25 0 10.679-2.406l-.006-.008zM7.28 48.01a1.25 1.25 0 002.312-.951c-.61-1.475-1.094-3-1.444-4.559a1.25 1.25 0 10-2.442.541 30.62 30.62 0 001.573 4.97zm.226-18.845a1.25 1.25 0 001.567-.817 30.03 30.03 0 011.791-4.447 1.251 1.251 0 00-2.234-1.124 32.57 32.57 0 00-1.942 4.817 1.25 1.25 0 00.818 1.571zm.101 8.591v-.24c.02-1.503.145-3.004.375-4.49a1.248 1.248 0 00-1.695-1.372 1.25 1.25 0 00-.776.997 34.71 34.71 0 00-.404 4.831v.333a1.225 1.225 0 001.25 1.221 1.275 1.275 0 001.25-1.28zm13.855 24.225a34.708 34.708 0 01-3.705-3.084 1.25 1.25 0 00-1.73 1.804 36.908 36.908 0 003.975 3.31 1.25 1.25 0 101.46-2.03zm8.52 4.329a28.578 28.578 0 01-4.424-1.817 1.25 1.25 0 10-1.137 2.226 31.206 31.206 0 004.812 1.976 1.25 1.25 0 10.75-2.385h-.001zm-15.679-9.225a1.25 1.25 0 00.199-1.756 35.543 35.543 0 01-2.75-3.97 1.251 1.251 0 00-2.203-.003c-.219.406-.197.898.058 1.282a38.19 38.19 0 002.941 4.25 1.25 1.25 0 001.757.198l-.002-.001z"/><path d="M37.607 0a37.349 37.349 0 00-20.239 5.92L12.276.403a1.25 1.25 0 00-2.158.682l-2.5 18.75a1.252 1.252 0 001.414 1.403l17.5-2.5a1.25 1.25 0 00.74-2.085l-4.708-5.099A30 30 0 1137.607 67.5h-.015c-.987 0-1.974-.06-2.954-.18a1.25 1.25 0 10-.3 2.482c1.078.131 2.164.197 3.25.198h.019a32.5 32.5 0 10-17.67-59.76 1.253 1.253 0 00-.235 1.895l4.125 4.465-13.513 1.933 1.93-14.478 4 4.343a1.25 1.25 0 001.625.185 35 35 0 0152.9 40.051 34.999 34.999 0 01-37.974 23.539 1.25 1.25 0 00-.34 2.476A37.501 37.501 0 1037.606 0z"/><path d="M37.607 13.75c-.69 0-1.25.56-1.25 1.25v22.5c0 .331.132.65.366.884l12.5 12.5a1.25 1.25 0 001.768-1.768L38.857 36.982V15c0-.69-.56-1.25-1.25-1.25z"/></g><defs><clipPath id="clip0_1_180"><path fill="#fff" d="M0 0h75v75H0z"/></clipPath></defs></svg>