<svg width="75" height="75" fill="none" xmlns="http://www.w3.org/2000/svg"><g clip-path="url(#clip0_1_172)" fill="#1D2025"><path d="M73.75 43.75A1.25 1.25 0 0075 42.5v-10a1.25 1.25 0 00-1.25-1.25h-6.916a29.817 29.817 0 00-4.172-10.071l4.886-4.896a1.25 1.25 0 000-1.767l-7.063-7.062a1.25 1.25 0 00-1.766 0l-4.898 4.884A29.82 29.82 0 0043.75 8.166V1.25A1.25 1.25 0 0042.5 0h-10a1.25 1.25 0 00-1.25 1.25v6.916a29.82 29.82 0 00-10.071 4.171l-4.896-4.885a1.25 1.25 0 00-1.767 0l-7.062 7.063a1.25 1.25 0 000 1.766l4.885 4.896A29.818 29.818 0 008.166 31.25H1.25A1.25 1.25 0 000 32.5v10a1.25 1.25 0 001.25 1.25h6.916a29.82 29.82 0 004.171 10.071l-4.885 4.897a1.25 1.25 0 000 1.766l7.063 7.062a1.25 1.25 0 001.766 0l4.896-4.885a29.82 29.82 0 0010.073 4.173v6.916A1.25 1.25 0 0032.5 75h10a1.25 1.25 0 001.25-1.25v-6.916a29.85 29.85 0 0010.068-4.178l10.198 10.199a6.25 6.25 0 008.839-8.839L62.656 53.817a29.85 29.85 0 004.178-10.067h6.916zm-2.662 27.338a3.75 3.75 0 01-5.304 0L41.849 47.154a6.225 6.225 0 00-4.428-1.82c-.26 0-.52.015-.78.046A9.992 9.992 0 0125.8 32.875l5.514 5.515c.234.234.552.366.883.366H37.5a1.25 1.25 0 001.25-1.25v-5.31c0-.331-.132-.65-.366-.883l-5.509-5.514a9.99 9.99 0 0112.5 10.842 6.258 6.258 0 001.774 5.208l23.939 23.935a3.75 3.75 0 010 5.303zm-22.167-31a3.77 3.77 0 01-1.057-3.144A12.492 12.492 0 0030.07 24.18a1.25 1.25 0 00-.343 2.011l6.523 6.522v3.536h-3.536l-6.521-6.523a1.25 1.25 0 00-2.012.343 12.491 12.491 0 0012.756 17.792 3.77 3.77 0 013.144 1.06l6.43 6.428a20.012 20.012 0 118.839-8.839l-6.429-6.424zm15.648 2.207a27.248 27.248 0 01-3.718 9.724l-3.655-3.655a22.527 22.527 0 10-8.838 8.839l3.655 3.654a27.25 27.25 0 01-9.724 3.718A1.25 1.25 0 0041.25 65.8v6.7h-7.5v-6.7a1.25 1.25 0 00-1.039-1.231 27.236 27.236 0 01-10.961-4.543 1.25 1.25 0 00-1.602.139l-4.74 4.731L10.11 59.6l4.731-4.74a1.25 1.25 0 00.139-1.603 27.237 27.237 0 01-4.543-10.967A1.25 1.25 0 009.2 41.25H2.5v-7.5h6.7a1.25 1.25 0 001.231-1.039 27.236 27.236 0 014.543-10.961 1.25 1.25 0 00-.139-1.602l-4.731-4.74L15.4 10.11l4.74 4.731a1.25 1.25 0 001.603.139 27.237 27.237 0 0110.967-4.543A1.25 1.25 0 0033.75 9.2V2.5h7.5v6.7a1.25 1.25 0 001.039 1.231c3.945.69 7.69 2.24 10.967 4.543a1.251 1.251 0 001.603-.139l4.74-4.731 5.297 5.297-4.731 4.74a1.25 1.25 0 00-.139 1.603A27.234 27.234 0 0164.57 32.71a1.25 1.25 0 001.23 1.04h6.7v7.5h-6.7a1.25 1.25 0 00-1.231 1.039v.006z"/><path d="M45.455 43.688a1.25 1.25 0 10-1.767 1.767l.883.884a1.25 1.25 0 001.768-1.768l-.884-.883zM63.133 64.9a1.25 1.25 0 001.767-1.767L49.875 48.106a1.251 1.251 0 00-1.769 1.77L63.133 64.9zm4.42 4.42a1.25 1.25 0 001.767-1.767l-.884-.885a1.25 1.25 0 10-1.768 1.768l.885.884z"/></g><defs><clipPath id="clip0_1_172"><path fill="#fff" d="M0 0h75v75H0z"/></clipPath></defs></svg>